<?xml version="1.0"?>
<svg version="1.1" xmlns="http://www.w3.org/2000/svg" width="400" height="50" style=""><path fill="#9332c7" d="M32.99,33.505q1.365-0.665,2.24-2.205q0.875-1.47,0.875-3.15q0-3.01-2.03-4.865q-2.03-1.82-5.11-1.82l-9.835,0l-0.42,0l-1.785,0l0,24.535l1.785,0l0.42,0l9.835,0q3.08,0,5.11-1.82q2.03-1.855,2.03-4.865q0-1.645-0.8575-3.2025t-2.2575-2.6075z M19.13,23.25l9.835,0q2.1,0,3.465,1.435q1.47,1.54,1.47,3.465q0,1.575-1.155,2.905q-1.085,1.19-2.87,1.575l-0.91,0l-9.835,0l0-9.38z M28.965,44.215l-9.835,0l0-9.38l9.835,0l0.91,0q1.785,0.385,2.87,1.575q1.155,1.33,1.155,2.905q0,1.89-1.47,3.43q-1.4,1.47-3.465,1.47z M41.8744,46.035l2.205,0l0-24.605l-2.205,0l0,24.605z M67.7338,46l0-2.205l-6.23,0q-4.34,0-7.28-2.94t-2.94-7.28q0-3.99,2.94-6.86t7.28-2.87l6.23,0l0-2.275l-6.23,0q-5.285,0-8.855,3.5q-3.57,3.465-3.57,8.505q0,5.355,3.57,8.855q3.5,3.57,8.855,3.57l6.23,0z M81.5532,21.36q-3.92,0-6.58,2.835q-2.625,2.8-2.625,6.825l0,14.98l2.205,0l0-10.99l14.07,0l0,10.99l2.205,0l0-14.98q0-4.025-2.625-6.825q-2.73-2.835-6.65-2.835z M88.6232,32.84l-14.07,0l0-1.82q0-3.01,2.03-5.215q2.065-2.24,4.97-2.24t5.04,2.24q2.03,2.205,2.03,5.215l0,1.82z M114.0976,21.5l-18.97,0l0,2.135l8.61,0l0,22.435l2.17,0l0-22.435l8.19,0l0-2.135z M120.532,39.28q0-1.68,1.19-3.045q1.19-1.435,2.87-1.435l0.455,0l6.545,0l0-2.17l-6.545,0l-0.455,0q-1.785-0.35-2.9225-1.54t-1.1375-2.835q0-2.065,1.2075-3.2725t3.3075-1.2075l11.9,0l0-2.205l-11.9,0q-2.695,0-4.69,1.995q-1.995,1.925-1.995,4.69q0,1.75,0.665,3.185t1.96,2.065q-1.295,0.945-1.96,2.485t-0.665,3.29q0,2.73,1.995,4.655q2.03,2.03,4.69,2.03l11.9,0l0-2.31l-11.9,0q-2.1,0-3.3075-1.19t-1.2075-3.185z M141.5264,46.07l17.115,0l0-1.785l-14.945,0l0-22.785l-2.17,0l0,24.57z"/><path fill="#" d=""/></svg>
